<svg width="50" height="14" viewBox="0 0 50 14" fill="none" xmlns="http://www.w3.org/2000/svg">
<path d="M0.764648 13.6471H6.53222C9.56431 13.6471 11.1792 12.0754 11.1792 9.94048C11.1792 7.95622 9.74887 6.75781 8.21305 6.68577V6.5548C9.61704 6.24046 10.6519 5.25161 10.6519 3.67337C10.6519 1.66291 9.14905 0.235291 6.16968 0.235291H0.764648V13.6471ZM3.61877 11.3288V7.76631H6.01149C7.38252 7.76631 8.23283 8.55216 8.23283 9.65889C8.23283 10.6674 7.54072 11.3288 5.94557 11.3288H3.61877ZM3.61877 5.84754V2.52734H5.78738C7.05295 2.52734 7.77142 3.17566 7.77142 4.14487C7.77142 5.20576 6.90134 5.84754 5.73465 5.84754H3.61877Z" fill="#171948"/>
<path d="M14.4808 13.6471L15.4827 10.5888H20.3539L21.3558 13.6471H24.4142L19.7606 0.235291H16.0826L11.4224 13.6471H14.4808ZM16.2078 8.37534L17.8689 3.30009H17.9743L19.6354 8.37534H16.2078Z" fill="#171948"/>
<path d="M36.8009 0.235291H33.9599V8.67003H33.8413L28.0144 0.235291H25.5096V13.6471H28.3638V5.20576H28.4626L34.3357 13.6471H36.8009V0.235291Z" fill="#171948"/>
<path d="M38.6296 13.6471H41.4837V9.8357L42.8877 8.13304L46.5855 13.6471H49.9999L44.9311 6.24046L49.9406 0.235291H46.5196L41.6617 6.14878H41.4837V0.235291H38.6296V13.6471Z" fill="#171948"/>
</svg>
