<svg width="22" height="23" viewBox="0 0 22 23" fill="none" xmlns="http://www.w3.org/2000/svg">
<path fill-rule="evenodd" clip-rule="evenodd" d="M11 20.6731C16.0545 20.6722 20.1667 16.56 20.1667 11.5055C20.1667 6.45193 16.0545 2.33976 11 2.33885C5.94549 2.33884 1.83332 6.45101 1.83332 11.5055C1.83332 16.56 5.94457 20.6722 11 20.6731ZM11 4.17214C15.0434 4.17305 18.3333 7.46297 18.3333 11.5055C18.3333 15.5489 15.0434 18.8388 11 18.8397C6.95656 18.8388 3.66665 15.5489 3.66665 11.5055C3.66665 7.46205 6.95656 4.17214 11 4.17214Z" fill="#FF0F0F"/>
<path fill-rule="evenodd" clip-rule="evenodd" d="M10.0833 15.1666L11.9167 15.1666L11.9167 11.5L14.6749 11.5L11.0037 7.82871L7.33334 11.5L10.0833 11.5L10.0833 15.1666Z" fill="#FF0F0F"/>
</svg>
