<svg width="22" height="23" viewBox="0 0 22 23" fill="none" xmlns="http://www.w3.org/2000/svg">
<path fill-rule="evenodd" clip-rule="evenodd" d="M11 2.3269C5.94551 2.32782 1.83334 6.43999 1.83334 11.4945C1.83334 16.5481 5.94551 20.6602 11 20.6612C16.0545 20.6612 20.1667 16.549 20.1667 11.4945C20.1667 6.43999 16.0554 2.32782 11 2.3269ZM11 18.8279C6.9566 18.8269 3.66669 15.537 3.66669 11.4945C3.66669 7.45111 6.9566 4.1612 11 4.16028C15.0434 4.16119 18.3334 7.45111 18.3334 11.4945C18.3334 15.5379 15.0434 18.8279 11 18.8279Z" fill="#20F14E"/>
<path fill-rule="evenodd" clip-rule="evenodd" d="M11.9167 7.83337L10.0833 7.83337V11.5H7.32507L10.9963 15.1713L14.6667 11.5H11.9167V7.83337Z" fill="#20F14E"/>
</svg>
